<svg version="1.1" id="Layer_1" xmlns="http://www.w3.org/2000/svg" xmlns:xlink="http://www.w3.org/1999/xlink" x="0px" y="0px"
	 width="100%" viewBox="0 0 245 64" enable-background="new 0 0 245 64" xml:space="preserve">
<path fill="#FFFFFF" opacity="1.000000" stroke="none" 
	d="
M246.000000,55.000000 
	C246.000000,58.326408 246.000000,61.652817 246.000000,65.000000 
	C179.312439,65.000000 112.624878,65.000000 45.590950,64.650742 
	C51.617767,62.222664 57.138973,59.289825 60.624241,52.970711 
	C66.441284,42.423878 64.443527,31.006287 55.896538,22.921764 
	C48.396336,15.827385 41.283779,8.323185 34.000000,1.000000 
	C104.549385,1.000000 175.098770,1.000000 246.000000,1.000000 
	C246.000000,18.019278 246.000000,35.040981 245.558578,52.522327 
	C244.744766,48.892448 243.948334,44.788425 244.087585,40.716396 
	C244.384705,32.027260 239.391968,28.396521 231.048981,33.113556 
	C231.048981,28.995731 231.048981,25.133879 231.048981,21.402576 
	C227.380325,21.402576 224.243393,21.402576 220.700455,21.402576 
	C225.252457,25.603050 225.307404,49.124443 220.893784,55.000000 
	C229.470566,55.000000 237.735291,55.000000 246.000000,55.000000 
M162.720779,40.673847 
	C162.839523,40.808460 162.958267,40.943073 162.794739,41.726990 
	C160.672256,43.164333 158.059479,44.226559 156.582153,46.157490 
	C155.396118,47.707687 154.787964,50.601963 155.426025,52.351933 
	C155.910629,53.681030 158.759705,54.826862 160.553299,54.821903 
	C162.629074,54.816158 164.701111,53.460720 166.951248,52.625759 
	C170.643341,56.736267 174.551086,56.097324 177.052338,50.204361 
	C175.894333,50.277405 174.977570,50.335236 173.999802,50.396912 
	C173.999802,46.071014 174.534470,41.825085 173.799347,37.811752 
	C173.358109,35.402786 171.305145,32.008141 169.316132,31.462099 
	C166.289993,30.631336 162.406448,31.223639 159.436646,32.495193 
	C157.508774,33.320641 155.076859,36.806629 155.490784,38.434261 
	C156.261658,41.465424 159.448303,41.908062 162.720779,40.673847 
M68.002388,25.348879 
	C72.179504,35.394424 66.332146,44.836620 66.227356,54.686295 
	C69.811493,54.686295 73.373001,54.686295 76.677979,54.686295 
	C77.259216,50.710140 77.790291,47.077168 78.408798,42.846088 
	C80.555031,55.990311 81.041565,56.418701 91.356911,54.286915 
	C87.212860,41.526722 84.009941,28.643049 89.972130,15.187336 
	C85.765907,15.187336 82.989883,15.187336 80.218849,15.187336 
	C79.635567,17.742414 79.093590,20.116531 78.448730,22.941292 
	C77.749527,20.012821 77.165207,17.565529 76.615105,15.261551 
	C72.966522,15.261551 69.551292,15.261551 66.115021,15.261551 
	C66.778366,18.505999 67.389175,21.493454 68.002388,25.348879 
M124.654854,28.124664 
	C125.374458,29.500067 126.094070,30.875471 126.813675,32.250874 
	C127.115746,32.083485 127.417809,31.916094 127.719879,31.748705 
	C127.719879,28.228415 127.719879,24.708126 127.719879,21.180450 
	C126.092598,21.533436 124.718407,22.133953 123.383614,22.056385 
	C120.820900,21.907459 118.291779,21.209986 115.728546,21.034082 
	C110.364044,20.665941 107.815781,23.727543 106.746185,28.627808 
	C105.832558,32.813515 107.061409,36.014492 110.680840,38.252621 
	C113.955154,40.277351 117.541512,41.904808 120.471390,44.333431 
	C121.914589,45.529709 123.134224,48.336243 122.777359,50.068497 
	C122.145874,53.133778 119.118668,53.773323 116.429871,52.701141 
	C112.993111,51.330711 109.580551,49.688568 108.926826,45.257332 
	C108.749619,44.056118 107.794106,42.969719 107.195824,41.830624 
	C106.924683,41.945427 106.653549,42.060230 106.382408,42.175030 
	C106.382408,46.423359 106.382408,50.671684 106.382408,54.364792 
	C111.099907,54.589943 115.401031,54.720406 119.690430,55.019100 
	C124.910820,55.382633 127.729134,52.488174 129.451263,48.056923 
	C131.030334,43.993790 129.765656,40.544117 126.485222,38.079796 
	C123.424034,35.780178 119.903976,34.101379 116.734436,31.932264 
	C114.857269,30.647593 113.267929,28.942345 111.550331,27.427242 
	C116.705078,21.556238 118.188766,21.648842 124.654854,28.124664 
M142.954391,43.001072 
	C146.243286,43.001072 149.532196,43.001072 152.978973,43.001072 
	C153.069214,37.945229 152.195831,34.028496 147.373062,31.790588 
	C143.394196,29.944275 140.114700,31.152294 137.095245,33.499306 
	C134.114761,35.816032 132.890656,44.814209 134.663788,49.157639 
	C137.272125,55.546963 144.919556,57.526558 150.056519,52.913639 
	C151.535965,51.585121 152.258926,49.414181 153.192184,47.857254 
	C149.978119,48.836334 147.173950,50.672623 144.950348,50.129963 
	C141.875061,49.379440 141.010040,45.860748 142.954391,43.001072 
M201.000000,45.251118 
	C201.312256,50.592155 204.563675,54.750782 208.621994,54.999783 
	C215.985931,55.451603 218.564819,53.830925 219.592438,47.762352 
	C216.319824,49.451298 213.114563,53.290001 209.972137,47.963257 
	C206.850601,42.671925 207.172363,36.204971 211.069702,33.219635 
	C211.405029,34.202423 211.551773,35.170135 212.032410,35.925354 
	C212.937698,37.347832 213.791473,39.166611 215.145172,39.803261 
	C215.951477,40.182476 218.822845,38.509563 218.767990,37.957790 
	C218.576981,36.035992 217.806061,32.816048 216.729340,32.589359 
	C213.343155,31.876465 209.386292,31.374569 206.259003,32.492920 
	C201.015839,34.367939 200.762894,39.495914 201.000000,45.251118 
M182.000000,41.589157 
	C181.665588,45.987724 181.331177,50.386288 180.980423,55.000000 
	C182.395157,55.000000 184.383667,55.000000 186.372177,55.000000 
	C188.227493,55.000000 190.082809,55.000000 192.609009,55.000000 
	C188.685074,50.515827 187.896088,42.037518 190.621964,38.061352 
	C191.084824,37.386211 192.704330,37.429436 193.808304,37.286114 
	C195.410873,37.078072 197.030624,37.002254 198.643036,36.870045 
	C198.495224,35.146381 198.960709,32.803410 198.024292,31.876068 
	C197.117416,30.977987 194.499878,30.969854 193.131668,31.619537 
	C191.859451,32.223640 191.243790,34.210445 190.227249,35.758846 
	C187.406128,29.783567 183.368225,33.026951 181.182953,32.236595 
	C181.451447,34.999760 181.725723,37.822536 182.000000,41.589157 
M98.455750,42.000000 
	C100.215393,42.000000 101.975037,42.000000 103.788353,42.000000 
	C103.788353,39.458633 103.788353,37.405617 103.788353,35.328728 
	C99.400009,35.328728 95.232353,35.328728 91.311356,35.328728 
	C91.311356,37.725407 91.311356,39.775597 91.311356,42.000000 
	C93.580902,42.000000 95.540451,42.000000 98.455750,42.000000 
z"/>
<path fill="#ED3C3C" opacity="1.000000" stroke="none" 
	d="
M33.625000,1.000000 
	C41.283779,8.323185 48.396336,15.827385 55.896538,22.921764 
	C64.443527,31.006287 66.441284,42.423878 60.624241,52.970711 
	C57.138973,59.289825 51.617767,62.222664 45.122292,64.650742 
	C42.629444,65.000000 40.258884,65.000000 37.311012,64.666336 
	C35.803261,64.246269 34.872822,64.159866 33.583214,64.033623 
	C32.505421,64.015099 31.786795,64.036423 30.709610,63.999859 
	C29.567369,64.294655 28.783684,64.647324 28.000000,65.000000 
	C25.629442,65.000000 23.258884,65.000000 20.325333,64.648819 
	C10.388865,61.915260 4.298876,55.971355 1.000000,47.000000 
	C1.000000,43.307091 1.000000,39.614182 1.342171,35.328865 
	C3.992822,30.866982 5.732567,26.472431 8.723396,23.232933 
	C15.833964,15.531166 23.536592,8.376011 31.000000,1.000000 
	C31.750000,1.000000 32.500000,1.000000 33.625000,1.000000 
M24.995813,37.733952 
	C26.032957,40.956867 26.698578,44.366615 28.201513,47.355293 
	C30.070253,51.071404 34.083176,50.895649 36.288105,47.329769 
	C38.700302,43.428703 40.048691,39.410316 38.409477,34.739117 
	C37.954201,33.441746 38.499863,31.793123 38.642315,29.341976 
	C44.829479,35.621563 52.600372,39.850189 47.427227,50.305901 
	C52.115078,47.649334 53.745056,36.579178 50.487122,33.256756 
	C44.682781,27.337519 38.528820,21.761110 32.299477,15.830351 
	C27.359686,20.714495 22.728573,25.373070 18.008091,29.939253 
	C12.871575,34.907871 11.297351,41.756927 14.105117,48.106895 
	C14.463137,48.916584 15.504683,49.424030 16.229570,50.071499 
	C12.528350,39.799751 19.955355,35.476109 25.536753,30.267681 
	C26.045824,30.446119 26.554897,30.624557 27.063969,30.802996 
	C26.388973,32.844933 25.713976,34.886868 24.995813,37.733952 
z"/>
<path fill="#000000" opacity="1.000000" stroke="none" 
	d="
M246.000000,54.666668 
	C237.735291,55.000000 229.470566,55.000000 220.893784,55.000000 
	C225.307404,49.124443 225.252457,25.603050 220.700455,21.402576 
	C224.243393,21.402576 227.380325,21.402576 231.048981,21.402576 
	C231.048981,25.133879 231.048981,28.995731 231.048981,33.113556 
	C239.391968,28.396521 244.384705,32.027260 244.087585,40.716396 
	C243.948334,44.788425 244.744766,48.892448 245.558578,52.990986 
	C246.000000,53.444447 246.000000,53.888889 246.000000,54.666668 
M236.000000,41.611301 
	C236.000000,39.485607 236.000000,37.359917 236.000000,34.237579 
	C234.062714,35.425732 231.770508,36.125950 231.709091,36.985546 
	C231.352783,41.972866 231.451340,47.000187 231.628448,52.005756 
	C231.644974,52.472809 233.394714,53.359779 234.136154,53.185543 
	C234.888077,53.008842 235.848053,51.794197 235.913498,50.970325 
	C236.134613,48.186649 235.999146,45.374657 236.000000,41.611301 
z"/>
<path fill="#FFFFFF" opacity="1.000000" stroke="none" 
	d="
M30.531342,1.000000 
	C23.536592,8.376011 15.833964,15.531166 8.723396,23.232933 
	C5.732567,26.472431 3.992822,30.866982 1.342171,34.868225 
	C1.000000,23.744717 1.000000,12.489433 1.000000,1.000000 
	C10.686306,1.000000 20.374496,1.000000 30.531342,1.000000 
z"/>
<path fill="#FFFFFF" opacity="1.000000" stroke="none" 
	d="
M1.000000,47.469711 
	C4.298876,55.971355 10.388865,61.915260 19.881168,64.648819 
	C13.742913,65.000000 7.485826,65.000000 1.000000,65.000000 
	C1.000000,59.315166 1.000000,53.627293 1.000000,47.469711 
z"/>
<path fill="#358383" opacity="1.000000" stroke="none" 
	d="
M28.375000,65.000000 
	C28.783684,64.647324 29.567369,64.294655 30.678205,64.233757 
	C31.005358,64.525536 31.000000,65.000000 31.000000,65.000000 
	C30.250000,65.000000 29.500000,65.000000 28.375000,65.000000 
z"/>
<path fill="#FFFFFF" opacity="1.000000" stroke="none" 
	d="
M31.375000,65.000000 
	C31.000000,65.000000 31.005358,64.525536 31.036762,64.291641 
	C31.786795,64.036423 32.505421,64.015099 33.611515,64.264328 
	C33.998981,64.534866 34.000000,65.000000 34.000000,65.000000 
	C33.250000,65.000000 32.500000,65.000000 31.375000,65.000000 
z"/>
<path fill="#318181" opacity="1.000000" stroke="none" 
	d="
M34.375000,65.000000 
	C34.000000,65.000000 33.998981,64.534866 33.970680,64.304169 
	C34.872822,64.159866 35.803261,64.246269 36.866852,64.666336 
	C36.250000,65.000000 35.500000,65.000000 34.375000,65.000000 
z"/>
<path fill="#000000" opacity="1.000000" stroke="none" 
	d="
M68.001183,24.914894 
	C67.389175,21.493454 66.778366,18.505999 66.115021,15.261551 
	C69.551292,15.261551 72.966522,15.261551 76.615105,15.261551 
	C77.165207,17.565529 77.749527,20.012821 78.448730,22.941292 
	C79.093590,20.116531 79.635567,17.742414 80.218849,15.187336 
	C82.989883,15.187336 85.765907,15.187336 89.972130,15.187336 
	C84.009941,28.643049 87.212860,41.526722 91.356911,54.286915 
	C81.041565,56.418701 80.555031,55.990311 78.408798,42.846088 
	C77.790291,47.077168 77.259216,50.710140 76.677979,54.686295 
	C73.373001,54.686295 69.811493,54.686295 66.227356,54.686295 
	C66.332146,44.836620 72.179504,35.394424 68.001183,24.914894 
z"/>
<path fill="#000000" opacity="1.000000" stroke="none" 
	d="
M124.367706,27.873039 
	C118.188766,21.648842 116.705078,21.556238 111.550331,27.427242 
	C113.267929,28.942345 114.857269,30.647593 116.734436,31.932264 
	C119.903976,34.101379 123.424034,35.780178 126.485222,38.079796 
	C129.765656,40.544117 131.030334,43.993790 129.451263,48.056923 
	C127.729134,52.488174 124.910820,55.382633 119.690430,55.019100 
	C115.401031,54.720406 111.099907,54.589943 106.382408,54.364792 
	C106.382408,50.671684 106.382408,46.423359 106.382408,42.175030 
	C106.653549,42.060230 106.924683,41.945427 107.195824,41.830624 
	C107.794106,42.969719 108.749619,44.056118 108.926826,45.257332 
	C109.580551,49.688568 112.993111,51.330711 116.429871,52.701141 
	C119.118668,53.773323 122.145874,53.133778 122.777359,50.068497 
	C123.134224,48.336243 121.914589,45.529709 120.471390,44.333431 
	C117.541512,41.904808 113.955154,40.277351 110.680840,38.252621 
	C107.061409,36.014492 105.832558,32.813515 106.746185,28.627808 
	C107.815781,23.727543 110.364044,20.665941 115.728546,21.034082 
	C118.291779,21.209986 120.820900,21.907459 123.383614,22.056385 
	C124.718407,22.133953 126.092598,21.533436 127.719879,21.180450 
	C127.719879,24.708126 127.719879,28.228415 127.719879,31.748705 
	C127.417809,31.916094 127.115746,32.083485 126.813675,32.250874 
	C126.094070,30.875471 125.374458,29.500067 124.367706,27.873039 
z"/>
<path fill="#000000" opacity="1.000000" stroke="none" 
	d="
M162.392120,40.247288 
	C159.448303,41.908062 156.261658,41.465424 155.490784,38.434261 
	C155.076859,36.806629 157.508774,33.320641 159.436646,32.495193 
	C162.406448,31.223639 166.289993,30.631336 169.316132,31.462099 
	C171.305145,32.008141 173.358109,35.402786 173.799347,37.811752 
	C174.534470,41.825085 173.999802,46.071014 173.999802,50.396912 
	C174.977570,50.335236 175.894333,50.277405 177.052338,50.204361 
	C174.551086,56.097324 170.643341,56.736267 166.951248,52.625759 
	C164.701111,53.460720 162.629074,54.816158 160.553299,54.821903 
	C158.759705,54.826862 155.910629,53.681030 155.426025,52.351933 
	C154.787964,50.601963 155.396118,47.707687 156.582153,46.157490 
	C158.059479,44.226559 160.672256,43.164333 163.324539,41.361832 
	C166.107056,40.393196 168.010498,39.023918 166.762253,36.688995 
	C165.954758,35.178497 163.684555,34.449947 161.779449,33.176975 
	C162.056198,36.370785 162.224167,38.309036 162.392120,40.247288 
M163.505707,45.003006 
	C163.232513,46.389198 162.959320,47.775391 162.686127,49.161583 
	C163.696075,49.346657 165.533508,49.830025 165.590622,49.671616 
	C166.331406,47.616646 166.819275,45.470501 167.370926,43.347351 
	C166.990494,43.182083 166.610046,43.016815 166.229614,42.851547 
	C165.502747,43.376495 164.775894,43.901443 163.505707,45.003006 
z"/>
<path fill="#000000" opacity="1.000000" stroke="none" 
	d="
M142.511932,43.009331 
	C141.010040,45.860748 141.875061,49.379440 144.950348,50.129963 
	C147.173950,50.672623 149.978119,48.836334 153.192184,47.857254 
	C152.258926,49.414181 151.535965,51.585121 150.056519,52.913639 
	C144.919556,57.526558 137.272125,55.546963 134.663788,49.157639 
	C132.890656,44.814209 134.114761,35.816032 137.095245,33.499306 
	C140.114700,31.152294 143.394196,29.944275 147.373062,31.790588 
	C152.195831,34.028496 153.069214,37.945229 152.978973,43.001072 
	C149.532196,43.001072 146.243286,43.001072 142.511932,43.009331 
M141.831787,35.694130 
	C141.496918,36.980442 141.162048,38.266754 140.783524,39.720711 
	C142.854324,39.720711 144.396912,39.720711 146.627258,39.720711 
	C145.852966,37.533817 145.289551,35.789516 144.525513,34.138020 
	C144.475998,34.030994 142.882645,34.638187 141.831787,35.694130 
z"/>
<path fill="#000000" opacity="1.000000" stroke="none" 
	d="
M201.000000,44.808796 
	C200.762894,39.495914 201.015839,34.367939 206.259003,32.492920 
	C209.386292,31.374569 213.343155,31.876465 216.729340,32.589359 
	C217.806061,32.816048 218.576981,36.035992 218.767990,37.957790 
	C218.822845,38.509563 215.951477,40.182476 215.145172,39.803261 
	C213.791473,39.166611 212.937698,37.347832 212.032410,35.925354 
	C211.551773,35.170135 211.405029,34.202423 211.069702,33.219635 
	C207.172363,36.204971 206.850601,42.671925 209.972137,47.963257 
	C213.114563,53.290001 216.319824,49.451298 219.592438,47.762352 
	C218.564819,53.830925 215.985931,55.451603 208.621994,54.999783 
	C204.563675,54.750782 201.312256,50.592155 201.000000,44.808796 
z"/>
<path fill="#000000" opacity="1.000000" stroke="none" 
	d="
M182.000000,41.117233 
	C181.725723,37.822536 181.451447,34.999760 181.182953,32.236595 
	C183.368225,33.026951 187.406128,29.783567 190.227249,35.758846 
	C191.243790,34.210445 191.859451,32.223640 193.131668,31.619537 
	C194.499878,30.969854 197.117416,30.977987 198.024292,31.876068 
	C198.960709,32.803410 198.495224,35.146381 198.643036,36.870045 
	C197.030624,37.002254 195.410873,37.078072 193.808304,37.286114 
	C192.704330,37.429436 191.084824,37.386211 190.621964,38.061352 
	C187.896088,42.037518 188.685074,50.515827 192.609009,55.000000 
	C190.082809,55.000000 188.227493,55.000000 186.372177,55.000000 
	C184.383667,55.000000 182.395157,55.000000 180.980423,55.000000 
	C181.331177,50.386288 181.665588,45.987724 182.000000,41.117233 
z"/>
<path fill="#000000" opacity="1.000000" stroke="none" 
	d="
M97.977875,42.000000 
	C95.540451,42.000000 93.580902,42.000000 91.311356,42.000000 
	C91.311356,39.775597 91.311356,37.725407 91.311356,35.328728 
	C95.232353,35.328728 99.400009,35.328728 103.788353,35.328728 
	C103.788353,37.405617 103.788353,39.458633 103.788353,42.000000 
	C101.975037,42.000000 100.215393,42.000000 97.977875,42.000000 
z"/>
<path fill="#FFFFFF" opacity="1.000000" stroke="none" 
	d="
M25.017397,37.331375 
	C25.713976,34.886868 26.388973,32.844933 27.063969,30.802996 
	C26.554897,30.624557 26.045824,30.446119 25.536753,30.267681 
	C19.955355,35.476109 12.528350,39.799751 16.229570,50.071499 
	C15.504683,49.424030 14.463137,48.916584 14.105117,48.106895 
	C11.297351,41.756927 12.871575,34.907871 18.008091,29.939253 
	C22.728573,25.373070 27.359686,20.714495 32.299477,15.830351 
	C38.528820,21.761110 44.682781,27.337519 50.487122,33.256756 
	C53.745056,36.579178 52.115078,47.649334 47.427227,50.305901 
	C52.600372,39.850189 44.829479,35.621563 38.642315,29.341976 
	C38.499863,31.793123 37.954201,33.441746 38.409477,34.739117 
	C40.048691,39.410316 38.700302,43.428703 36.288105,47.329769 
	C34.083176,50.895649 30.070253,51.071404 28.201513,47.355293 
	C26.698578,44.366615 26.032957,40.956867 25.017397,37.331375 
z"/>
<path fill="#FFFFFF" opacity="1.000000" stroke="none" 
	d="
M236.000000,42.092392 
	C235.999146,45.374657 236.134613,48.186649 235.913498,50.970325 
	C235.848053,51.794197 234.888077,53.008842 234.136154,53.185543 
	C233.394714,53.359779 231.644974,52.472809 231.628448,52.005756 
	C231.451340,47.000187 231.352783,41.972866 231.709091,36.985546 
	C231.770508,36.125950 234.062714,35.425732 236.000000,34.237579 
	C236.000000,37.359917 236.000000,39.485607 236.000000,42.092392 
z"/>
<path fill="#FFFFFF" opacity="1.000000" stroke="none" 
	d="
M162.556458,40.460567 
	C162.224167,38.309036 162.056198,36.370785 161.779449,33.176975 
	C163.684555,34.449947 165.954758,35.178497 166.762253,36.688995 
	C168.010498,39.023918 166.107056,40.393196 163.465668,41.037178 
	C162.958267,40.943073 162.839523,40.808460 162.556458,40.460567 
z"/>
<path fill="#FFFFFF" opacity="1.000000" stroke="none" 
	d="
M163.777374,44.714699 
	C164.775894,43.901443 165.502747,43.376495 166.229614,42.851547 
	C166.610046,43.016815 166.990494,43.182083 167.370926,43.347351 
	C166.819275,45.470501 166.331406,47.616646 165.590622,49.671616 
	C165.533508,49.830025 163.696075,49.346657 162.686127,49.161583 
	C162.959320,47.775391 163.232513,46.389198 163.777374,44.714699 
z"/>
<path fill="#FFFFFF" opacity="1.000000" stroke="none" 
	d="
M141.919617,35.303642 
	C142.882645,34.638187 144.475998,34.030994 144.525513,34.138020 
	C145.289551,35.789516 145.852966,37.533817 146.627258,39.720711 
	C144.396912,39.720711 142.854324,39.720711 140.783524,39.720711 
	C141.162048,38.266754 141.496918,36.980442 141.919617,35.303642 
z"/>
</svg>