<svg xmlns="http://www.w3.org/2000/svg" width="142" height="31" viewBox="0 0 142 31" version="1.1"><path d="M 1 4.515 C 1 4.799, 2.637 7.496, 4.637 10.509 L 8.274 15.987 5.806 19.743 C 4.449 21.810, 2.535 24.738, 1.554 26.250 L -0.230 29 4.635 28.990 C 9.175 28.981, 9.639 28.738, 11.582 25.351 L 13.665 21.721 15.914 25.361 C 17.952 28.658, 18.578 29, 22.582 29 C 25.012 29, 27 28.750, 27 28.445 C 27 28.140, 25.215 25.262, 23.033 22.049 L 19.066 16.207 23.011 10.104 L 26.956 4 22.444 4 C 18.328 4, 17.747 4.314, 15.818 7.584 L 13.703 11.168 11.655 7.584 C 9.804 4.345, 9.193 4, 5.303 4 C 2.937 4, 1 4.232, 1 4.515 M 126 18 L 126 29 129.500 29 L 133 29 133 24 C 133 21.250, 133.450 19, 134 19 C 134.550 19, 135 21.250, 135 24 L 135 29 138.500 29 L 142 29 142 23.191 C 142 15.905, 140.477 13.556, 136.163 14.189 C 133.082 14.642, 133 14.554, 133 10.827 C 133 7.120, 132.890 7, 129.500 7 L 126 7 126 18 M 54.280 8.996 C 51.981 9.946, 50.770 13.030, 51.332 16.500 C 51.511 17.600, 53.308 19.400, 55.326 20.500 C 60.892 23.534, 59.593 25.316, 53.502 23.001 C 50.970 22.038, 50.885 22.120, 51.187 25.251 C 51.475 28.243, 51.809 28.525, 55.405 28.820 C 61.083 29.284, 63.757 28.329, 65.435 25.237 C 66.476 23.318, 66.932 23.016, 66.960 24.227 C 67.022 26.899, 71.339 29.172, 75.674 28.815 C 78.832 28.555, 79.559 28.084, 79.837 26.120 C 80.127 24.066, 79.851 23.820, 77.828 24.328 C 76.539 24.652, 74.812 24.492, 73.992 23.974 C 72.928 23.301, 73.801 23.026, 77.031 23.015 C 81.131 23.001, 81.667 23.279, 82.670 25.938 C 83.743 28.779, 83.994 28.875, 90.390 28.875 L 97 28.875 97 23.009 C 97 15.479, 95.489 13.788, 89.129 14.200 C 85.235 14.452, 84.450 14.849, 84.187 16.697 C 83.904 18.691, 84.228 18.855, 87.687 18.465 C 91.417 18.044, 91.429 18.053, 88.256 18.890 C 86.472 19.360, 84.375 20.274, 83.596 20.920 C 82.440 21.880, 82.057 21.534, 81.509 19.039 C 80.724 15.466, 78.459 14, 73.721 14 C 70.352 14, 67 16.409, 67 18.829 C 67 19.473, 66.550 20, 66 20 C 65.450 20, 65 19.601, 65 19.114 C 65 18.627, 63.425 17.480, 61.500 16.567 C 57.857 14.839, 56.860 13, 59.566 13 C 60.427 13, 62.033 13.482, 63.134 14.072 C 64.973 15.056, 65.111 14.871, 64.819 11.822 C 64.520 8.708, 64.250 8.487, 60.500 8.289 C 58.300 8.174, 55.501 8.492, 54.280 8.996 M 100 21.523 L 100 29 103.445 29 C 106.846 29, 106.894 28.939, 107.195 24.250 C 107.448 20.309, 107.841 19.483, 109.500 19.400 C 111.059 19.323, 111.526 19.970, 111.616 22.332 C 111.780 26.625, 115.256 29.178, 120.421 28.799 C 123.738 28.556, 124.558 28.093, 124.811 26.318 C 125.069 24.501, 124.567 24.083, 121.811 23.818 C 119.273 23.574, 118.500 23.033, 118.500 21.500 C 118.500 19.975, 119.271 19.426, 121.750 19.187 C 124.442 18.927, 125 18.455, 125 16.437 C 125 14.234, 124.589 14, 120.723 14 C 118.370 14, 115.445 14.701, 114.223 15.557 C 112.331 16.882, 112 16.898, 112 15.664 C 112 14.569, 110.534 14.194, 106 14.131 L 100 14.046 100 21.523 M 73 19 C 73 19.550, 73.702 20, 74.559 20 C 75.416 20, 75.840 19.550, 75.500 19 C 75.160 18.450, 74.459 18, 73.941 18 C 73.423 18, 73 18.450, 73 19 M 89.114 22.929 C 88.255 23.461, 88.152 23.976, 88.824 24.391 C 89.395 24.744, 90.163 24.545, 90.531 23.950 C 91.449 22.464, 90.719 21.938, 89.114 22.929" stroke="none" fill="#000000" fill-rule="evenodd"/><path d="" stroke="none" fill="#040404" fill-rule="evenodd"/><path d="M 31.618 4.319 C 29.353 6.694, 25.950 10.593, 24.057 12.982 L 20.613 17.326 24.553 20.732 C 30.784 26.118, 37.137 30, 39.721 30 C 43.058 30, 47.406 27.556, 49.352 24.586 C 51.537 21.250, 51.548 10.956, 49.370 6.367 C 47.220 1.837, 44.414 -0, 39.646 -0 C 36.340 -0, 35.102 0.666, 31.618 4.319 M 36.741 6.250 C 35.838 6.938, 33.578 9.504, 31.718 11.954 L 28.337 16.408 33.139 20.204 C 38.304 24.287, 41.937 24.992, 44.128 22.336 C 45.376 20.823, 45.290 20.784, 43.183 21.907 C 41.272 22.926, 40.440 22.863, 38.433 21.548 C 35.354 19.531, 35.316 18, 38.345 18 C 39.635 18, 41.529 17.073, 42.555 15.939 C 44.156 14.170, 44.213 13.740, 42.960 12.903 C 42.157 12.366, 40.038 12.141, 38.250 12.401 C 36.027 12.725, 35 12.469, 35 11.592 C 35 9.608, 38.391 7.008, 41.079 6.930 C 43.325 6.864, 43.356 6.797, 41.500 6 C 38.760 4.823, 38.604 4.831, 36.741 6.250" stroke="none" fill="#f43c3c" fill-rule="evenodd"/></svg>